<?xml version="1.0" encoding="UTF-8"?>
<svg width="700pt" height="700pt" version="1.1" viewBox="0 0 700 700" xmlns="http://www.w3.org/2000/svg" xmlns:xlink="http://www.w3.org/1999/xlink">
 <g>
  <path d="m350 21c-142.81 0-259 116.19-259 259s116.19 259 259 259 259-116.19 259-259-116.19-259-259-259zm143.56 206.23-165.41 165.41c-5.0352 5.0352-12.012 7.9258-19.129 7.9258v11.199l-0.24219-11.199c-7.2109-0.0625-14.219-3.0742-19.227-8.2656l-83.449-86.5c-10.359-10.734-10.051-27.887 0.68359-38.246 5.0664-4.8945 11.738-7.582 18.777-7.582 7.4102 0 14.324 2.9336 19.473 8.2656l64.332 66.68 145.95-145.94c5.1055-5.1055 11.898-7.9258 19.129-7.9258 7.2227 0 14.016 2.8125 19.125 7.918 10.539 10.551 10.539 27.715-0.003906 38.258z"/>
 </g>
</svg>
