<svg width="64" height="46" xmlns="http://www.w3.org/2000/svg" fill="none">
    <g>
        <title>Layer 1</title>
        <path id="svg_1" fill="#DE2910" d="m64,39.11108c0,1.886 -0.7492,3.6947 -2.0828,5.0283c-1.3336,1.3336 -3.1423,2.0828 -5.0283,2.0828l-49.77779,0c-1.88598,0 -3.69472,-0.7492 -5.02831,-2.0828c-1.3336,-1.3336 -2.0828,-3.1423 -2.0828,-5.0283l0,-32c0,-1.886 0.7492,-3.6947 2.0828,-5.0283c1.33359,-1.33358 3.14233,-2.08278 5.02831,-2.08278l49.77779,0c1.886,0 3.6947,0.7492 5.0283,2.08278c1.3336,1.3336 2.0828,3.1423 2.0828,5.0283l0,32z"/>
        <path id="svg_2" fill="#FFDE02" d="m19.7975,15.959l1.3084,0.6329l1.0471,-1.0062l-0.1973,1.44l1.28,0.6862l-1.4293,0.256l-0.256,1.4293l-0.6862,-1.28l-1.44,0.1974l1.0062,-1.0471l-0.6329,-1.3085zm8.2933,5.2285l-0.6329,1.3066l1.0063,1.0489l-1.4383,-0.1991l-0.6862,1.2818l-0.256,-1.4311l-1.4311,-0.256l1.2818,-0.6862l-0.1991,-1.4383l1.0489,1.0063l1.3066,-0.6329zm-1.7013,6.7182l0.4764,1.3724l1.4525,0.0303l-1.1574,0.8764l0.4214,1.392l-1.1929,-0.8302l-1.1929,0.8302l0.4196,-1.392l-1.1574,-0.8764l1.4525,-0.0303l0.4782,-1.3724zm-6.592,5.8311l1.3084,0.6329l1.0471,-1.0062l-0.1973,1.44l1.28,0.6862l-1.4293,0.256l-0.256,1.4293l-0.6862,-1.28l-1.44,0.1974l1.0062,-1.0472l-0.6329,-1.3084zm-7.3529,-14.2684l1.6516,4.7484l5.024,0.1031l-4.0054,3.0365l1.456,4.8106l-4.1262,-2.8711l-4.12622,2.8711l1.456,-4.8106l-4.00534,-3.0365l5.02396,-0.1031l1.6516,-4.7484z"/>
    </g>
</svg>
