<svg width="64" height="44" xmlns="http://www.w3.org/2000/svg" fill="none">
    <defs>
        <clipPath id="clip0_605_3440">
            <rect id="svg_1" fill="white" height="64" width="64"/>
        </clipPath>
    </defs>
    <g>
        <title>Layer 1</title>
        <g id="svg_2" clip-path="url(#clip0_605_3440)">
            <path id="svg_3" fill="#2E3192" d="m38.0001,44l16,0c1.977,0 3.657,-0.446 5.052,-1.223l-21.052,-12.558l0,13.781zm25.66,-7.79c0.228,-1.017 0.344,-2.094 0.344,-3.211l0,-5l-14.11,0l13.762,8.211m-63.30598,-28.451c-0.237,1.0639 -0.35439,2.151 -0.35,3.241l0,5l14.16398,0l-13.81398,-8.241zm25.64998,-7.759l-16,0c-1.96298,0 -3.63198,0.44 -5.02098,1.206l21.02098,12.54l0,-13.746zm-20.95698,42.826c1.376,0.744 3.023,1.174 4.95698,1.174l16,0l0,-13.676l-20.95698,12.502zm-5.043,-14.826l0,5c0,1.151 0.122,2.26 0.363,3.303l13.91898,-8.303l-14.28198,0zm59.11498,-26.745c-1.406,-0.798 -3.109,-1.255 -5.115,-1.255l-16,0l0,13.851l21.115,-12.596l0,0zm4.885,14.745l0,-5c0,-1.094 -0.113,-2.149 -0.332,-3.147l-13.656,8.147l13.988,0z"/>
            <path id="svg_4" fill="#E6E7E8" d="m50.012,16l13.656,-8.147c-0.626,-2.864 -2.15,-5.235 -4.553,-6.598l-21.115,12.596l0,-13.851l-2,0l0,18l28,0l0,-2l-13.988,0zm-50.012,10l0,2l14.282,0l-13.919,8.303c0.661,2.855 2.231,5.199 4.68,6.523l20.957,-12.502l0,13.676l2,0l0,-18l-28,0zm64,0l-28,0l0,18l2,0l0,-13.781l21.052,12.559c2.421,-1.348 3.964,-3.706 4.604,-6.566l-13.762,-8.212l14.106,0l0,-2zm-38,-26l0,13.746l-21.021,-12.54c-2.43,1.34 -3.983,3.694 -4.63,6.553l13.815,8.241l-14.164,0l0,2l28,0l0,-18l-2,0z"/>
            <path id="svg_5" fill="#BE1E2D" d="m36,18l0,-18l-8,0l0,18l-28,0l0,8l28,0l0,18l8,0l0,-18l28,0l0,-8l-28,0z"/>
            <path id="svg_6" fill="#BE1E2D" d="m21.938,16l-20.05005,-11.969c-0.431,0.64 -0.777,1.344 -1.063,2.094l16.54705,9.875l4.5629,0m41.1551,22.09l-16.813,-10.09l-4.6561,0l20.313,12.219c0.4711,-0.6582 0.8593,-1.3719 1.1561,-2.125m-2.371,-35.703l-22.75,13.609l4.619,0.003l19.631,-11.753c-0.438,-0.797 -0.9,-1.311 -1.5,-1.859m-58.90605,37.484c0.44983,0.6851 0.99117,1.3055 1.609,1.844l22.64105,-13.719l-4.563,0l-19.68705,11.875z"/>
        </g>
    </g>
</svg>
